# xmcd CD database file
#
# Track frame offsets:
#	150
#	13823
#	28982
#	41687
#	58354
#	82079
#	100253
#	115789
#	128116
#	144888
#	158657
#	173521
#	190267
#	206624
#	222400
#	235249
#	255625
#
# Disc length: 3590 seconds
#
# Revision: 0
# Processed by: cddbd v1.5.2PL0 Copyright (c) Steve Scherf et al.
# Submitted via: CDex 1.81
#
DISCID=f10e0411
DTITLE=Dave Earl - Big City Blues
DYEAR=2009
DGENRE=Blues
TTITLE0=Doghouse Blues
TTITLE1=Oaktown Blues
TTITLE2=Let's Hook Up
TTITLE3=I've Got to Talk to My Baby 
TTITLE4=Dark Night
TTITLE5=Ready to Rumba
TTITLE6=That's How I Roll
TTITLE7=Sugar Sweet
TTITLE8=Hard Hearted Woman
TTITLE9=Can't Hold Out
TTITLE10=Bright Lights Big City
TTITLE11=Shame Shame Shame
TTITLE12=Blues for Sonny Lane
TTITLE13=Everyday I Have the Blues
TTITLE14=Back Scratcher
TTITLE15=Ramblin' on My Mind
TTITLE16=Chillin'
EXTD=YEAR: 2009
EXTT0=
EXTT1=
EXTT2=
EXTT3=
EXTT4=
EXTT5=
EXTT6=
EXTT7=
EXTT8=
EXTT9=
EXTT10=
EXTT11=
EXTT12=
EXTT13=
EXTT14=
EXTT15=
EXTT16=
PLAYORDER=
